<svg width="28" height="35" viewBox="0 0 28 35" fill="none" xmlns="http://www.w3.org/2000/svg">
<path fill-rule="evenodd" clip-rule="evenodd" d="M2.13557 30.3755C1.23097 30.1039 0.732291 29.1772 1.00377 28.2728C1.23671 27.4968 1.95268 27.0188 2.72271 27.0696L6.64615 22.6703L4.17737 20.4691L5.46496 19.0255L6.55662 19.9988L18.3221 6.80644L23.5099 5.22789L22.4763 10.6004L10.755 23.7427L11.846 24.7158L10.5585 26.1596L8.08985 23.9582L4.24472 28.2696C4.33892 28.588 4.33769 28.9271 4.24117 29.2449C3.96957 30.1497 3.04037 30.6471 2.13557 30.3755ZM18.2455 12.4375L9.31129 22.4549L8.0003 21.2861L17.0252 11.1669L18.5741 10.7082L18.2455 12.4375Z" fill="#111010"/>
<path fill-rule="evenodd" clip-rule="evenodd" d="M25.9056 30.4402C26.8102 30.1686 27.3088 29.2419 27.0374 28.3375C26.8044 27.5614 26.0885 27.0835 25.3184 27.1343L21.395 22.735L23.8638 20.5338L22.5762 19.0902L21.4845 20.0635L9.71904 6.87114L4.53124 5.29259L5.56485 10.6651L17.2861 23.8074L16.1951 24.7805L17.4827 26.2243L19.9513 24.0229L23.7964 28.3342C23.7022 28.6527 23.7034 28.9918 23.8 29.3096C24.0716 30.2144 25.0008 30.7118 25.9056 30.4402ZM9.79562 12.5022L18.7299 22.5196L20.0408 21.3508L11.0159 11.2316L9.46707 10.7729L9.79562 12.5022Z" fill="#111010"/>
</svg>
