<svg width="50" height="49" viewBox="0 0 50 49" fill="none" xmlns="http://www.w3.org/2000/svg">
<path d="M31.2295 0.24585C32.1741 0.24585 32.9214 0.990127 32.9214 1.9345C32.9214 2.87877 32.1742 3.62305 31.2295 3.62305C30.823 3.62305 30.4544 3.48465 30.1654 3.25246L24.0745 5.46707L25.2049 8.57513L23.3869 9.23629L22.8869 7.86201L6.33608 13.8799L0.962807 12.8501L4.35127 8.61633L20.9647 2.57599L20.4651 1.20192L22.2831 0.540869L23.4135 3.64913L29.6299 1.38877C29.8529 0.71902 30.4766 0.24585 31.2295 0.24585ZM21.6259 4.39393L8.78816 9.06165L7.65621 10.4567L9.2017 10.7799L22.2261 6.04417L21.6259 4.39393ZM35.2344 7.59546C36.179 7.59546 36.923 8.33974 36.923 9.28411C36.923 10.2284 36.1791 10.9759 35.2344 10.9759C35.044 10.9759 34.8621 10.9443 34.6923 10.8879L34.7237 10.9326L29.2581 14.7571L31.1545 17.4666L29.5693 18.5757L28.7309 17.3776L14.3018 27.4738L8.84498 27.8694L11.0222 22.9031L25.5061 12.769L24.6677 11.5709L26.2525 10.4617L28.1489 13.1717L33.5511 9.39187C33.549 9.35605 33.5459 9.32044 33.5459 9.2839C33.5459 8.33922 34.2898 7.59546 35.2344 7.59546ZM40.6918 14.2205C41.6362 14.2205 42.3834 14.9647 42.3834 15.9091C42.3834 16.8534 41.6364 17.5977 40.6916 17.5977C40.5958 17.5977 40.5029 17.5881 40.4118 17.5734L36.5827 22.1333L39.116 24.2601L37.8719 25.742L36.7519 24.8017L25.3844 38.339L20.2462 40.0716L21.1194 34.6709L32.444 21.1844L31.3241 20.2444L32.568 18.7627L35.101 20.8893L39.0305 16.2104C39.0134 16.1126 39.0029 16.0123 39.0029 15.9092C39.0029 14.9643 39.747 14.2205 40.6918 14.2205ZM26.6151 14.354L15.5165 22.1197L14.791 23.7456L16.3839 23.6561L27.6219 15.7927L26.6151 14.354ZM47.7177 18.7689C48.6622 18.7689 49.4062 19.5132 49.4062 20.4575C49.4062 21.2677 48.8579 21.9313 48.1058 22.104L45.6128 27.4456L48.6102 28.8441L47.792 30.5969L46.4666 29.9785L38.9907 45.9965L34.4758 49L33.9211 43.5571L41.3691 27.5997L40.0444 26.9815L40.8625 25.2284L43.8598 26.6271L46.3031 21.3923C46.1213 21.1144 46.025 20.7893 46.026 20.4572C46.026 19.5125 46.773 18.7689 47.7177 18.7689ZM33.9253 22.4287L25.2192 32.7971L24.949 34.4926L26.5232 33.9746L35.2703 23.5578L33.9253 22.4287ZM43.1221 28.4181L37.4451 40.5812L37.6276 42.332L38.9792 41.4473L44.7138 29.1607L43.1221 28.4181Z" fill="#111010"/>
</svg>
